<?xml version="1.0" encoding="utf-8"?>
<!-- Generator: Adobe Illustrator 19.0.0, SVG Export Plug-In . SVG Version: 6.00 Build 0)  -->
<svg version="1.1" id="Layer_1" xmlns="http://www.w3.org/2000/svg" xmlns:xlink="http://www.w3.org/1999/xlink" x="0px" y="0px"
	 viewBox="279 -470 813 1197" style="enable-background:new 279 -470 813 1197;" xml:space="preserve">
<style type="text/css">
	.st0{fill:#0288D1;}
	.st1{fill:none;enable-background:new    ;}
</style>
<g>
	<path class="st0" d="M951-263.4c-6.8,10.4-13.6,20.8-20.4,31.1c-8.9,13.5-18,27-26.9,40.6c-1.2,1.8-2.4,2.4-4.5,2.4
		c-40.5-0.1-81-0.1-121.4-0.1c-1.2,0-2.3,0-4.1,0c1.5,1.8,2.7,3.1,3.8,4.5c16.8,20.6,27.1,44.2,32.7,70c0.5,2.4,1.4,3.1,3.8,3.1
		c44.4-0.1,88.8-0.1,133.2-0.1c1.2,0,2.3,0,3.9,0c-0.8,1.3-1.4,2.2-2,3.1c-15.1,22.8-30.3,45.5-45.3,68.4c-1.3,2-2.6,2.7-5,2.7
		c-27.8-0.1-55.6,0-83.5-0.1c-2.4,0-3.4,0.6-3.8,3c-7,45.9-28.1,84.3-61.8,115.9c-27.8,26-60.5,43.8-96.4,56
		c-24.2,8.3-49.1,13.5-74.6,15.9c-5.2,0.5-10.4,0.9-16.2,1.4C660.1,276.5,757.4,398.2,855,520.3c-1.5,0-2.5,0-3.4,0
		c-39.8,0-79.7,0-119.5,0.1c-2.2,0-3.5-0.7-4.9-2.4c-72.5-90.8-144.9-181.5-217.4-272.2c-20.4-25.6-40.8-51.1-61.3-76.6
		c-1.4-1.7-2-3.4-2-5.6c0-20.9,0-41.9-0.1-62.8c0-2.6,0.6-3.3,3.2-3.2c26.6,0.1,53.3,0.4,79.9-0.1c29.7-0.6,58.8-5.3,86.6-16.2
		c31.8-12.5,58.1-32,75.4-62.1C701,2.5,706.3-15.3,707-34.4c0.1-2.9-0.7-3.3-3.4-3.3c-93.1,0.1-186.1,0.1-279.2,0.1
		c-1.3,0-2.6,0-3.9,0c-0.6-1.1,0.3-1.6,0.8-2.3c15.4-23.2,30.9-46.4,46.2-69.7c1.3-2,2.7-2.1,4.6-2.1c73.9,0,147.7,0,221.6,0
		c1.2,0,2.4,0,3.5,0c0.4-1.3-0.4-2-0.8-2.8c-14.1-30.3-38.1-49.4-69.1-60.4c-21-7.4-42.9-10.7-65-12.4c-35.7-2.8-71.5-1.8-107.3-2
		c-11.6-0.1-23.1,0-35.2,0c3.5-5.4,6.7-10.6,10-15.7c0-1.3,0.8-2.2,1.5-3.2c11.6-17.3,22.8-34.8,34.5-52.1c0.7-1.1,1.5-2.1,2.5-3
		C629.3-263.4,790.1-263.4,951-263.4z"/>
</g>
<path class="st1" d="z"/>
</svg>
