<?xml version="1.0" encoding="utf-8"?>
<!-- Generator: Adobe Illustrator 19.0.0, SVG Export Plug-In . SVG Version: 6.00 Build 0)  -->
<svg version="1.1" id="Layer_1" xmlns="http://www.w3.org/2000/svg" xmlns:xlink="http://www.w3.org/1999/xlink" x="0px" y="0px"
	 viewBox="0 0 404.9 404.9" style="enable-background:new 0 0 404.9 404.9;" xml:space="preserve">
<style type="text/css">
	.st0{fill:#54ABEC;}
	.st1{fill:#FCFCFC;}
	.st2{fill:#FEFEFE;}
</style>
<g>
	<path class="st0" d="M312.8,163.2c0,0.5,0,0.9-0.1,1.4c-0.3,0.5,0,1-0.2,1.5c-1.4,13.3-4.2,26.2-8.7,38.8
		c-4.2,11.9-9.7,23.3-16.5,34c-4.4,6.9-9.2,13.4-14.5,19.5c-3,3.5-6.1,6.9-9.4,10c-6.8,6.5-14.1,12.4-22,17.6
		c-5.7,3.7-11.5,7.1-17.7,10.1c-8.3,3.9-16.9,7.1-25.7,9.5c-7,1.9-14.1,3.3-21.2,4.3c-1.3,0.2-2.6,0.3-3.9,0.5
		c-0.4,0.2-0.8-0.1-1.2,0.2c-0.4,0-0.8,0-1.2,0.1c-0.5,0.2-1-0.1-1.4,0.2c-0.5,0-1,0-1.4,0.1c-0.5,0.2-1.1-0.1-1.7,0.2
		c-0.6,0-1.1,0-1.7,0c-0.8,0.2-1.6-0.1-2.4,0.2c-1.1,0-2.2,0-3.3,0.1c-3.3,0.1-6.5,0.1-9.8,0c-1,0-2.1,0-3.1-0.1
		c-0.7-0.3-1.5,0-2.2-0.2c-0.6,0-1.3,0-1.9-0.1c-0.5-0.2-1,0-1.5-0.2c-0.5,0-0.9,0-1.4-0.1c-0.4-0.2-0.8,0-1.2-0.2
		c-6-0.4-12-1.5-17.9-2.7c-3.8-0.8-7.5-1.8-11.2-2.9c-7.6-2.3-15-5-22.2-8.4c-6.2-2.9-12.1-6.2-17.9-9.8c-0.2-0.1-0.7-0.2-0.7-0.6
		c0,0,0.3-0.1,0.4-0.1c0.4,0.2,0.8,0,1.2,0.2c0.4,0,0.8,0,1.2,0.1c0.4,0.2,0.8,0,1.2,0.2c0.6,0,1.1,0,1.7,0.1c0.7,0.3,1.5,0,2.2,0.2
		c3.6,0.2,7.2,0.2,10.8,0c0.7-0.2,1.5,0.1,2.2-0.2c0.5,0,1,0,1.4,0c0.5-0.2,1,0.1,1.5-0.2c0.4,0,0.8,0,1.2-0.1
		c0.4-0.2,0.8,0.1,1.2-0.2c3.7-0.2,7.4-0.9,11-1.7c4.9-1.1,9.7-2.5,14.5-4.2c7.1-2.6,14-5.9,20.4-9.9c3.5-2.2,6.9-4.5,10.2-7
		c-0.2-0.6-0.6-0.3-0.9-0.3c-0.5-0.1-1,0.1-1.4-0.1c-0.5,0-0.9,0-1.4-0.1c-0.4-0.2-0.8,0-1.2-0.2c-7.1-0.8-13.8-2.9-20-6.2
		c-3.8-2-7.3-4.6-10.6-7.5c-6.2-5.3-10.7-11.9-14.1-19.2c-0.7-1.6-1.2-3.2-1.9-4.8c-0.3-0.6-0.4-0.9,0.6-0.8c1.6,0.2,3.3,0.7,5,0.5
		c0.5,0.3,1.1,0,1.7,0.2c2.1,0.1,4.2,0.1,6.3,0c0.6-0.2,1.2,0.1,1.7-0.2c0.4,0,0.8,0,1.2-0.1c0.4-0.2,0.8,0.1,1.2-0.2
		c2.3-0.1,4.4-0.7,7-1.3c-2.1-0.6-3.9-1-5.6-1.6c-6.6-2.2-12.7-5.5-18.1-9.9c-5.6-4.5-10.1-10-13.6-16.2c-2.9-5.2-5-10.9-6.1-16.8
		c-0.4-2.1-0.7-4.2-0.8-6.3c-0.2-0.7,0.1-1.5-0.2-2.2c0-0.9,0-1.8,0-2.8c1.8,0.8,3.4,1.6,5.1,2.4c4.6,2,9.4,3.4,14.5,4.1
		c0.9,0.1,1.8,0.2,2.7,0.2c0.5,0.3,1.1,0,1.7,0.2c0.3,0,0.6,0,0.9,0c-14.3-10.4-22.6-24.2-24.2-42c-0.2-0.6,0.1-1.3-0.2-1.9
		c0-1.7,0-3.5,0-5.2c0.3-0.6,0-1.3,0.2-1.9c0.7-8,2.9-15.6,6.8-22.6c0.6-1.2,0.7-1.2,1.5-0.2c7.3,8.9,15.6,16.9,24.7,24
		c9.7,7.6,20.1,14,31.2,19.2c10.9,5,22.2,8.8,33.9,11.3c4.6,1,9.1,1.9,13.8,2.2c0.4,0.3,0.8,0,1.2,0.2c0.3,0,0.6,0,0.9,0.1
		c0.4,0.3,0.8,0,1.2,0.2c0.4,0,0.8,0,1.2,0.1c0.5,0.3,1,0,1.5,0.2c0.5,0,1,0,1.4,0.1c0.5,0.3,1.1,0,1.7,0.2c0.1,0,0.2,0,0.4,0.1
		c1.6,0.1,1.5,0.1,1.2-1.5c-0.3-1.6-0.4-3.2-0.7-4.8c-0.2-0.4,0.1-0.8-0.2-1.2c0-0.5,0-1-0.1-1.4c-0.1-2.5-0.1-4.9,0-7.4
		c0.2-5.1,1.3-10.1,3-15c2.2-6.2,5.3-11.8,9.4-16.9c5.6-6.8,12.3-12.1,20.3-15.7c5.4-2.4,11-3.9,16.8-4.6c0.4-0.2,0.8,0.1,1.2-0.2
		c0.6,0,1.1,0,1.7-0.1c2.5-0.1,4.9-0.1,7.4,0c0.5,0,1,0,1.4,0.1c0.4,0.2,0.8,0,1.2,0.2c6.7,0.9,13.1,2.7,19.1,5.8
		c5.3,2.8,10.2,6.2,14.3,10.6c0.7,0.7,1.3,1,2.4,0.7c5.5-1.2,11-2.8,16.3-4.8c5.6-2.1,11.1-4.6,16.3-7.7c0.5-0.3,1-0.5,1.8-0.9
		c-4.4,13.3-12.4,23.4-24,30.7c1.7,0.3,9.2-1.1,15.9-3c5.2-1.4,10.2-3.3,15.3-5.3c-1,1.9-2.3,3.5-3.5,5.2
		c-4.1,5.6-8.9,10.6-13.9,15.3c-3.1,3-6.6,5.6-10,8.3c-0.2,0.8-0.2,1.6,0,2.5c0,3.1,0,6.2,0,9.3c-0.3,1,0,2.1-0.2,3.1
		c0,0.7,0,1.4-0.1,2.1C312.7,162,313,162.6,312.8,163.2z"/>
	<path class="st1" d="M148.8,311.3c3.3,0,6.5,0,9.8,0c-0.5,0.4-1.2,0.2-1.7,0.2c-2.3,0-4.6,0-6.9,0
		C149.6,311.5,149.2,311.6,148.8,311.3z"/>
	<path class="st1" d="M260.6,89.2c-2.5,0-4.9,0-7.4,0C255.7,88.9,258.2,88.9,260.6,89.2z"/>
	<path class="st1" d="M200.8,141.6c0,2.5,0,4.9,0,7.4c-0.4-1.1-0.2-2.2-0.2-3.3C200.7,144.4,200.4,143,200.8,141.6z"/>
	<path class="st1" d="M313,159.3c0-1-0.1-2.1,0.2-3.1C313.1,157.3,313.4,158.3,313,159.3z"/>
	<path class="st2" d="M147.6,262.8c0.8,0,1.7-0.1,2.5,0.2c0,0,0,0.1,0,0.1c0,0.1-0.1,0.1-0.2,0.1
		C149.3,262.7,148.3,263.4,147.6,262.8z"/>
	<path class="st1" d="M162,311.3c0.8-0.3,1.6-0.2,2.4-0.2C163.6,311.5,162.8,311.2,162,311.3z"/>
	<path class="st1" d="M313.2,146.9c-0.2-0.8-0.3-1.6,0-2.5C313.2,145.3,313.2,146.1,313.2,146.9z"/>
	<path class="st1" d="M143.5,311.1c0.7,0,1.5-0.1,2.2,0.2C145,311.2,144.2,311.5,143.5,311.1z"/>
	<path class="st1" d="M88.6,286.6c-0.7,0.3-1.4,0.2-2.2,0.2C87.1,286.4,87.9,286.6,88.6,286.6z"/>
	<path class="st1" d="M75.6,286.8c-0.7,0-1.5,0.1-2.2-0.2C74.1,286.6,74.9,286.4,75.6,286.8z"/>
	<path class="st1" d="M78.5,170.1c0.3,0.7,0.2,1.4,0.2,2.2C78.3,171.6,78.6,170.9,78.5,170.1z"/>
	<path class="st1" d="M79.1,123.1c0,0.6,0.1,1.3-0.2,1.9C79,124.4,78.8,123.8,79.1,123.1z"/>
	<path class="st1" d="M79,130.3c0.3,0.6,0.2,1.3,0.2,1.9C78.8,131.6,79,130.9,79,130.3z"/>
	<path class="st1" d="M166.1,311c0.5-0.3,1.1-0.2,1.7-0.2C167.2,311.2,166.6,311,166.1,311z"/>
	<path class="st2" d="M113.6,224.7c-0.5,0.3-1.1,0.2-1.7,0.2C112.4,224.5,113,224.7,113.6,224.7z"/>
	<path class="st2" d="M105.6,224.8c-0.6,0-1.1,0.1-1.7-0.2C104.5,224.7,105.1,224.5,105.6,224.8z"/>
	<path class="st2" d="M102.5,174.2c-0.6,0-1.2,0.1-1.7-0.2C101.3,174.1,101.9,173.8,102.5,174.2z"/>
	<path class="st1" d="M312.8,163.2c0-0.6-0.1-1.2,0.2-1.7C312.9,162,313.1,162.6,312.8,163.2z"/>
	<path class="st1" d="M200.1,157.9c-0.6,0-1.1,0.1-1.7-0.2C199,157.7,199.6,157.5,200.1,157.9z"/>
	<path class="st1" d="M140.2,310.8c0.5,0,1-0.1,1.5,0.2C141.2,311,140.6,311.2,140.2,310.8z"/>
	<path class="st1" d="M169.2,310.8c0.5-0.3,1-0.2,1.4-0.2C170.2,311,169.7,310.7,169.2,310.8z"/>
	<path class="st1" d="M197,157.6c-0.5,0-1,0.1-1.5-0.2C196.1,157.5,196.6,157.3,197,157.6z"/>
	<path class="st2" d="M91.5,286.3c-0.5,0.3-1,0.2-1.5,0.2C90.5,286.2,91,286.4,91.5,286.3z"/>
	<path class="st1" d="M312.5,166.1c0-0.5-0.1-1,0.2-1.5C312.7,165.1,312.9,165.6,312.5,166.1z"/>
	<path class="st2" d="M93.9,286.1c-0.4,0.3-0.8,0.2-1.2,0.2C93,285.9,93.5,286.1,93.9,286.1z"/>
	<path class="st1" d="M71.7,286.5c-0.4,0-0.8,0.1-1.2-0.2C70.9,286.4,71.4,286.2,71.7,286.5z"/>
	<path class="st1" d="M69.3,286.3c-0.4,0-0.8,0.1-1.2-0.2C68.5,286.1,69,285.9,69.3,286.3z"/>
	<path class="st2" d="M145,262.6c0.4,0,0.8-0.1,1.2,0.2C145.8,262.8,145.3,262.9,145,262.6z"/>
	<path class="st1" d="M194.4,157.4c-0.4,0-0.8,0.1-1.2-0.2C193.6,157.2,194,157.1,194.4,157.4z"/>
	<path class="st1" d="M171.8,310.5c0.4-0.3,0.8-0.2,1.2-0.2C172.7,310.7,172.2,310.5,171.8,310.5z"/>
	<path class="st1" d="M137.5,310.6c0.4,0,0.8-0.1,1.2,0.2C138.4,310.8,137.9,310.9,137.5,310.6z"/>
	<path class="st2" d="M115.9,224.4c-0.4,0.3-0.8,0.2-1.2,0.2C115.1,224.3,115.5,224.5,115.9,224.4z"/>
	<path class="st1" d="M192.2,157.2c-0.4,0-0.8,0.1-1.2-0.2C191.4,157,191.9,156.8,192.2,157.2z"/>
	<path class="st1" d="M200.9,150.5c0.3,0.4,0.2,0.8,0.2,1.2C200.7,151.3,200.9,150.9,200.9,150.5z"/>
	<path class="st1" d="M251.6,89.3c-0.4,0.3-0.8,0.2-1.2,0.2C250.7,89.1,251.2,89.3,251.6,89.3z"/>
	<path class="st1" d="M263.3,89.5c-0.4,0-0.8,0.1-1.2-0.2C262.5,89.3,262.9,89.1,263.3,89.5z"/>
</g>
</svg>
